<svg width="25" height="24" viewBox="0 0 25 24" fill="none" xmlns="http://www.w3.org/2000/svg">
<path d="M2.5 17L22.5 17" stroke="white" stroke-width="2" stroke-linecap="round"/>
<path d="M12.5 7C12.5 7 14 5.96638 14 4.69135C14 2.43622 11 2.43622 11 4.69135C11 5.96638 12.5 7 12.5 7Z" stroke="white" stroke-width="2" stroke-linejoin="round"/>
<path d="M3.5 17L4.12127 19.4851C4.34385 20.3754 5.14382 21 6.06155 21L18.9384 21C19.8562 21 20.6561 20.3754 20.8787 19.4851L21.5 17" stroke="white" stroke-width="2" stroke-linecap="round"/>
<path d="M21 14.5C20.5017 10.2768 16.8861 7 12.5 7C8.11386 7 4.49834 10.2768 4 14.5" stroke="white" stroke-width="2" stroke-linecap="round"/>
</svg>
