<svg width="260" height="260" viewBox="0 0 260 260" fill="none" xmlns="http://www.w3.org/2000/svg">
<path d="M141.298 9.71851C140.378 9.71851 139.448 9.77971 138.516 9.90215C131.988 10.7652 126.2 14.2628 121.885 17.2154C115.029 21.9019 108.684 27.4358 102.544 32.7859C99.7078 35.2566 96.779 37.8102 93.8422 40.2413C86.0096 46.727 75.4456 54.6288 63.1516 58.1778C50.7252 61.7663 38.0914 60.0935 29.3543 53.6986C19.5091 46.494 15.5928 32.6931 20.627 22.9368C24.3893 15.6493 32.8262 11.5908 39.8413 13.6882C43.5265 14.7961 46.6706 17.9955 48.0412 22.0363C49.238 25.5615 48.849 29.0789 46.9708 31.6878C46.6508 32.1302 46.7516 32.7464 47.194 33.0643C47.6324 33.3882 48.2526 33.2836 48.5705 32.8412C50.8279 29.709 51.3177 25.5398 49.9115 21.4023C48.3375 16.7651 44.6937 13.0858 40.4061 11.8001C32.5162 9.42619 23.0561 13.9231 18.8712 22.0323C13.4105 32.618 17.5915 47.5388 28.189 55.2944C37.4121 62.0487 50.6896 63.8341 63.6986 60.0777C76.3402 56.426 87.1215 48.3722 95.1022 41.764C98.0568 39.317 100.996 36.7556 103.839 34.277C109.936 28.9644 116.24 23.4681 122.998 18.8507C127.134 16.0206 132.662 12.6711 138.772 11.8653C144.883 11.0496 150.8 13.2102 153.843 17.3418C155.561 19.6781 156.227 22.8736 155.619 25.8854C155.109 28.4193 153.758 30.4554 151.815 31.6167C149.269 33.1374 146.024 32.4027 143.941 30.9966C141.786 29.545 140.698 27.4081 141.03 25.283C141.115 24.7459 140.743 24.2403 140.206 24.1554C139.675 24.0705 139.165 24.4378 139.078 24.9789C138.624 27.8801 140.028 30.7418 142.835 32.6338C146.012 34.7767 149.939 35.0433 152.83 33.3093C155.257 31.8597 156.934 29.3594 157.556 26.2765C158.271 22.7255 157.477 18.9474 155.433 16.1707C152.445 12.1062 147.089 9.71851 141.298 9.71851Z" fill="url(#paint0_linear_21919_819)"/>
<path d="M222.125 13.1182C221.43 13.1182 220.746 13.1558 220.085 13.2269C214.389 13.845 209.222 16.4954 204.228 19.0628L203.716 19.3235C192.096 25.2839 180.086 30.8335 168.017 35.8222C162.621 38.0519 157.319 40.094 151.793 40.6134C145.688 41.198 140.068 39.624 136.374 36.3238C132.188 32.5813 130.793 26.2457 133.201 21.9008C133.465 21.4249 133.292 20.8225 132.816 20.5578C132.338 20.2971 131.739 20.465 131.473 20.943C128.591 26.1489 130.132 33.3931 135.059 37.7952C139.163 41.4588 145.327 43.1967 151.977 42.5785C157.775 42.0354 163.228 39.9341 168.77 37.6451C180.888 32.6386 192.949 27.0653 204.617 21.0812L205.128 20.8186C209.963 18.3341 214.964 15.7646 220.296 15.1899C225.283 14.6468 231.52 16.2821 234.231 21.1405C236.101 24.5018 235.779 28.983 233.447 32.0382C231.537 34.5405 228.342 35.9328 225.494 35.5122C222.494 35.0639 219.972 32.5063 219.749 29.6861C219.636 28.2661 220.191 26.7295 221.23 25.5722C222.196 24.4978 223.426 23.8876 224.698 23.8501C225.241 23.8343 225.672 23.38 225.656 22.833C225.64 22.2899 225.221 21.8771 224.639 21.8752C222.824 21.9265 221.09 22.7717 219.759 24.253C218.345 25.829 217.624 27.8652 217.78 29.8401C218.074 33.6004 221.268 36.8769 225.2 37.4634C228.802 38.0046 232.647 36.3416 235.017 33.237C237.814 29.5755 238.199 24.2076 235.957 20.1806C233.177 15.1939 227.329 13.1182 222.125 13.1182Z" fill="url(#paint1_linear_21919_819)"/>
<path d="M104.598 40.9891C97.8499 40.9891 90.3925 43.3808 84.0846 47.7177C83.6343 48.0258 83.5217 48.642 83.8298 49.0903C84.1379 49.5425 84.76 49.6512 85.2024 49.3451C92.8217 44.1016 102.165 41.8541 109.587 43.4775C117.094 45.1207 124.666 51.9777 124.342 60.6063C124.217 63.9538 122.878 67.0189 120.667 69.0156C118.318 71.1367 114.9 71.9088 112.162 70.9431C108.967 69.8134 106.816 66.2961 107.265 62.9367C107.717 59.5773 110.715 56.7492 114.096 56.5003C114.639 56.4588 115.046 55.9848 115.008 55.4417C114.969 54.8986 114.473 54.4879 113.95 54.5293C109.674 54.8453 105.878 58.4239 105.309 62.674C104.739 66.9241 107.46 71.3737 111.503 72.8055C114.951 74.0181 119.069 73.1136 121.99 70.481C124.595 68.1308 126.171 64.5581 126.317 60.6793C126.641 52.0251 119.478 43.6217 110.008 41.5499C108.288 41.1727 106.469 40.9891 104.598 40.9891Z" fill="url(#paint2_linear_21919_819)"/>
<path d="M77.8707 5.1782C76.9484 5.1782 76.0261 5.28088 75.1157 5.49022C69.7734 6.72852 65.784 12.0964 66.4081 17.2115C66.9196 21.4083 70.4548 25.0738 74.6298 25.7394C78.8266 26.3892 83.3057 24.0133 85.0951 20.1838C85.3261 19.6901 85.1128 19.1016 84.6191 18.8705C84.1293 18.6395 83.5388 18.8508 83.3058 19.3465C81.8739 22.4077 78.2933 24.3214 74.9419 23.7862C71.6042 23.2549 68.778 20.3241 68.3692 16.9706C67.8636 12.8094 71.1579 8.43487 75.564 7.41382C81.4434 6.05308 87.9587 10.0642 89.8053 16.1747C91.8435 22.9191 91.2885 30.5187 88.2807 37.0203C85.1326 43.8299 77.7384 51.3643 69.8821 55.7665C69.4061 56.0351 69.2362 56.6355 69.5029 57.1114C69.7715 57.5894 70.3718 57.7573 70.8478 57.4906C79.1683 52.8278 86.7145 45.1176 90.0759 37.8498C93.2852 30.9137 93.8757 22.8066 91.6973 15.6039C89.8409 9.47567 83.8864 5.18018 77.8707 5.1782Z" fill="url(#paint3_linear_21919_819)"/>
<path d="M107.916 49.4209C107.916 49.4209 107.728 49.4327 107.383 49.4525C107.037 49.488 106.512 49.5078 105.88 49.6698C104.6 49.9245 102.7 50.4261 100.755 51.7C98.8449 52.9758 96.6508 54.7296 94.9602 57.2121C93.2815 59.6689 91.9366 62.7498 91.7252 66.046C91.5357 69.3205 92.0432 72.5811 93.2262 75.3342C94.4131 78.0932 96.238 80.2321 97.8732 81.8456C99.5401 83.467 101.314 84.3182 102.522 84.81C103.113 85.0884 103.626 85.205 103.958 85.3057C104.296 85.3906 104.477 85.436 104.477 85.436C104.477 85.436 103.972 84.891 103.113 83.9647C102.256 83.0602 101.246 81.6105 100.156 79.9437C99.0661 78.2571 98.2268 76.0768 97.6145 73.7839C96.9984 71.4771 96.7673 68.9788 96.9865 66.5516C97.2314 64.1263 97.9285 61.7169 98.9674 59.5662C100 57.4273 101.241 55.4464 102.631 53.9968C104.013 52.561 105.283 51.3326 106.296 50.6078C107.315 49.8593 107.916 49.4209 107.916 49.4209Z" fill="url(#paint4_linear_21919_819)"/>
<path d="M98.0764 50.5326C98.0764 50.5326 97.4661 50.4438 96.4135 50.5366C95.3648 50.6196 93.7987 50.7854 92.1022 51.526C90.4314 52.2725 88.4327 53.266 86.6572 54.8519C84.8936 56.4239 83.1872 58.4285 82.184 60.8202C81.1985 63.2 80.5349 65.6963 80.4441 68.0722C80.3532 70.452 80.8706 72.6244 81.3624 74.3881C81.87 76.1675 82.7469 77.4788 83.3532 78.3379C83.9535 79.2069 84.4157 79.6177 84.4157 79.6177C84.4157 79.6177 84.3979 78.9936 84.3248 77.9884C84.2399 76.9812 84.3071 75.5474 84.3011 73.9477C84.3011 72.3321 84.6487 70.4895 85.0635 68.6291C85.4802 66.7568 86.1319 64.8589 86.9653 63.0657C87.8126 61.2783 88.8553 59.5661 90.0285 58.0454C91.1937 56.5345 92.3925 55.0908 93.6347 54.0599C94.8671 53.0369 95.9296 52.0731 96.7591 51.4964C97.5846 50.9138 98.0764 50.5326 98.0764 50.5326Z" fill="url(#paint5_linear_21919_819)"/>
<path d="M97.8362 28.3521C97.8362 28.3521 98.1897 28.2849 98.6993 28.0597C99.2049 27.8346 99.9968 27.5324 100.662 26.938C101.332 26.3514 102.197 25.6839 102.89 24.8031C103.571 23.9203 104.288 22.9347 104.63 21.7932C104.956 20.6497 105.325 19.526 105.444 18.4141C105.55 17.2982 105.379 16.216 105.296 15.3312C105.227 14.4425 104.857 13.6782 104.644 13.1667C104.429 12.6532 104.213 12.3609 104.213 12.3609C104.213 12.3609 103.939 12.6117 103.617 13.0462C103.295 13.4827 102.748 14.0712 102.371 14.7901C102.009 15.5169 101.391 16.293 100.961 17.1501C100.516 18.0073 100.08 18.9078 99.7164 19.8361C99.3411 20.7584 99.039 21.7143 98.7743 22.6425C98.4998 23.5608 98.411 24.5502 98.174 25.3264C97.9567 26.1105 97.9449 26.9123 97.8777 27.4495C97.8125 27.9847 97.8362 28.3521 97.8362 28.3521Z" fill="url(#paint6_linear_21919_819)"/>
<path d="M161.467 32.4399C161.467 32.4399 161.874 32.4143 162.496 32.2444C163.114 32.0746 164.052 31.8811 164.966 31.3873C165.877 30.8936 167.026 30.3959 168.087 29.6612C169.141 28.9226 170.279 28.1287 171.148 27.0721C172.011 26.0115 172.929 25.0063 173.636 23.9299C174.338 22.8476 174.796 21.6804 175.258 20.7542C175.724 19.8279 175.886 18.882 176.032 18.2559C176.18 17.6279 176.19 17.2191 176.19 17.2191C176.19 17.2191 175.791 17.3296 175.222 17.616C174.654 17.9024 173.779 18.2539 172.971 18.8543C172.169 19.4626 171.108 20.0511 170.162 20.8312C169.211 21.6093 168.243 22.4685 167.35 23.3987C166.452 24.323 165.624 25.3203 164.881 26.2999C164.135 27.2735 163.582 28.3518 162.999 29.1734C162.429 30.0048 162.105 30.8877 161.836 31.4643C161.567 32.041 161.467 32.4399 161.467 32.4399Z" fill="url(#paint7_linear_21919_819)"/>
<path d="M32.3501 16.4704C28.7281 16.4704 25.189 17.2426 22.031 18.8699C13.9239 23.0548 9.4289 32.5128 11.7988 40.4047C13.0845 44.6923 16.7658 48.3361 21.401 49.9101C25.5346 51.3163 29.7057 50.8305 32.8399 48.5692C33.2843 48.2512 33.383 47.6331 33.0631 47.1927C32.7451 46.7503 32.121 46.6495 31.6866 46.9695C29.0796 48.8476 25.5603 49.2347 22.035 48.0399C17.9943 46.6693 14.7948 43.5251 13.6869 39.8399C11.5836 32.8288 15.644 24.3899 22.9356 20.6257C32.6898 15.5896 46.4947 19.5058 53.6974 29.3529C60.0903 38.0881 61.767 50.7218 58.1785 63.1482C54.6276 75.4423 46.7278 86.0083 40.242 93.8429C37.8069 96.7836 35.2494 99.7184 32.7748 102.556C27.4286 108.691 21.8987 115.034 17.2142 121.885C14.2616 126.202 10.762 131.993 9.90092 138.516C9.00232 145.332 11.4611 151.974 16.1635 155.434C18.9402 157.478 22.7203 158.27 26.2693 157.557C29.3561 156.937 31.8525 155.258 33.306 152.831C35.0381 149.935 34.7714 146.013 32.6306 142.837C30.7386 140.031 27.871 138.623 24.9757 139.079C24.4385 139.162 24.0692 139.668 24.1522 140.207C24.2371 140.746 24.7427 141.113 25.2798 141.03C27.395 140.702 29.5378 141.787 30.9934 143.941C32.3995 146.025 33.1362 149.27 31.6115 151.816C30.4483 153.759 28.4121 155.11 25.8802 155.619C22.8684 156.224 19.6729 155.56 17.3346 153.842C13.203 150.8 11.0543 144.885 11.862 138.773C12.6658 132.662 16.0173 127.133 18.8474 122.997C23.4668 116.243 28.9552 109.945 34.2658 103.852C36.7483 101.004 39.3138 98.0614 41.7647 95.1009C48.3749 87.1202 56.4267 76.3389 60.0784 63.6953C63.8348 50.6843 62.0455 37.4087 55.2931 28.1857C49.8502 20.7481 40.874 16.4704 32.3501 16.4704Z" fill="url(#paint8_linear_21919_819)"/>
<path d="M26.7532 130.025C24.7091 130.025 22.7085 130.493 20.9448 131.47C20.4689 131.735 20.2951 132.335 20.5597 132.813C20.8264 133.291 21.4208 133.463 21.9027 133.198C26.2476 130.793 32.5832 132.187 36.3257 136.374C39.6259 140.067 41.1881 145.686 40.6153 151.792C40.0959 157.32 38.0538 162.621 35.8241 168.017C30.8354 180.091 25.2838 192.103 19.3274 203.718L19.0667 204.227C16.4992 209.222 13.8488 214.388 13.2307 220.084C12.6204 225.715 14.5342 232.805 20.1825 235.955C24.2055 238.198 29.5754 237.813 33.2409 235.015C36.3415 232.645 38.0005 228.792 37.4653 225.199C36.8787 221.265 33.6023 218.076 29.842 217.779C27.8749 217.627 25.8309 218.344 24.2548 219.76C22.7736 221.091 21.9284 222.823 21.879 224.64C21.8632 225.185 22.2937 225.64 22.8388 225.656C23.3977 225.652 23.8382 225.241 23.854 224.696C23.8895 223.426 24.4998 222.193 25.5761 221.23C26.7334 220.191 28.2719 219.634 29.6879 219.748C32.5082 219.97 35.0677 222.494 35.514 225.492C35.9386 228.339 34.5443 231.537 32.0421 233.447C28.9868 235.783 24.5037 236.105 21.1423 234.231C16.284 231.521 14.6527 225.28 15.1918 220.297C15.7685 214.965 18.3379 209.965 20.8224 205.13L21.0851 204.618C27.0652 192.956 32.6385 180.895 37.649 168.771C39.9379 163.231 42.0393 157.778 42.5824 151.978C43.2045 145.326 41.4626 139.161 37.799 135.061C34.886 131.802 30.7346 130.025 26.7532 130.025Z" fill="url(#paint9_linear_21919_819)"/>
<path d="M48.534 83.6561C48.222 83.6561 47.9119 83.8042 47.7204 84.0847C42.1787 92.1405 39.8146 102.072 41.5526 110.008C43.6263 119.478 52.0475 126.692 60.6839 126.315C64.5627 126.171 68.1334 124.593 70.4856 121.99C73.1182 119.073 74.0306 114.955 72.8101 111.503C71.3803 107.46 66.9386 104.737 62.6786 105.309C58.4305 105.88 54.8519 109.674 54.5339 113.952C54.4924 114.495 54.9013 114.969 55.4464 115.01C55.9914 115.056 56.4654 114.643 56.5049 114.098C56.7557 110.717 59.5839 107.717 62.9413 107.267C66.2868 106.812 69.8141 108.965 70.9477 112.162C71.9155 114.898 71.1433 118.316 69.0202 120.667C67.0235 122.877 63.9584 124.216 60.6109 124.342C51.9586 124.668 45.1253 117.094 43.4821 109.585C41.8587 102.167 44.1062 92.8258 49.3497 85.2025C49.6578 84.7522 49.5452 84.138 49.0949 83.8299C48.9231 83.7114 48.7276 83.6561 48.534 83.6561Z" fill="url(#paint10_linear_21919_819)"/>
<path d="M16.1492 66.3423C11.3738 66.3423 6.64377 70.1421 5.49435 75.117C3.90847 81.9641 8.53973 89.5559 15.6081 91.6928C22.8127 93.8711 30.9218 93.2786 37.8539 90.0713C45.1237 86.7099 52.8319 79.1636 57.4948 70.8432C57.7614 70.3692 57.5915 69.7668 57.1156 69.4982C56.6416 69.2356 56.0392 69.4015 55.7706 69.8775C51.3685 77.7358 43.834 85.13 37.0244 88.2761C30.5268 91.2839 22.9312 91.8409 16.1788 89.8027C10.0703 87.9542 6.05919 81.4349 7.41795 75.5633C8.439 71.1572 12.8214 67.8689 16.9747 68.3666C20.3282 68.7754 23.261 71.6016 23.7903 74.9412C24.3235 78.2789 22.4138 81.8733 19.3506 83.3012C18.8569 83.5323 18.6435 84.1188 18.8746 84.6145C19.1057 85.1102 19.6962 85.3196 20.188 85.0905C24.0174 83.3032 26.4071 78.8023 25.7435 74.6272C25.078 70.4522 21.4124 66.917 17.2157 66.4055C16.8582 66.364 16.5027 66.3423 16.1492 66.3423Z" fill="url(#paint11_linear_21919_819)"/>
<path d="M49.3955 107.907C49.3955 107.907 49.832 107.306 50.5785 106.283C51.3053 105.268 52.5337 103.996 53.9715 102.612C55.4231 101.22 57.4079 99.9773 59.5487 98.9424C61.7132 97.8977 64.1385 97.3131 66.5459 96.9576C68.9791 96.6238 71.4912 96.9695 73.792 97.5876C76.0889 98.2018 78.2732 99.0432 79.9618 100.135C81.6306 101.227 83.0802 102.239 83.9867 103.098C84.9149 103.959 85.46 104.464 85.46 104.464C85.46 104.464 85.4146 104.283 85.3297 103.945C85.229 103.611 85.1124 103.098 84.834 102.505C84.3402 101.295 83.489 99.5191 81.8656 97.8503C80.2501 96.2131 78.1073 94.3862 75.3463 93.1973C72.5992 92.0143 69.3267 91.3922 66.0463 91.6964C62.7679 92.0183 59.6712 93.2507 57.2005 94.9353C54.716 96.6278 52.9583 98.824 51.6805 100.736C50.4067 102.685 49.9031 104.587 49.6463 105.869C49.4844 106.501 49.4646 107.028 49.4291 107.373C49.4074 107.719 49.3955 107.907 49.3955 107.907Z" fill="url(#paint12_linear_21919_819)"/>
<path d="M50.5052 98.0674C50.5052 98.0674 50.8863 97.5756 51.4709 96.7521C52.0476 95.9226 53.0133 94.8561 54.0363 93.6218C55.0692 92.3775 56.513 91.1768 58.0277 90.0096C59.5564 88.8305 61.32 87.8885 63.054 86.9425C64.8097 86.0004 66.757 85.4534 68.6253 85.0386C70.4897 84.6239 72.3362 84.2763 73.9517 84.2763C75.5554 84.2822 76.9912 84.2151 77.9984 84.302C79.0056 84.3751 79.6297 84.3928 79.6297 84.3928C79.6297 84.3928 79.2189 83.9307 78.348 83.3283C77.4869 82.722 76.1736 81.8432 74.3922 81.3356C72.6266 80.8439 70.4521 80.3264 68.0684 80.4173C65.6965 80.5061 63.1488 81.065 60.8065 82.1592C58.4682 83.2632 56.4122 84.8668 54.8323 86.6364C53.2444 88.4138 52.249 90.4145 51.5005 92.0872C50.7599 93.7837 50.592 95.3538 50.5091 96.4025C50.4163 97.4571 50.5052 98.0674 50.5052 98.0674Z" fill="url(#paint13_linear_21919_819)"/>
<path d="M28.3702 97.8566C28.3702 97.8566 28.0009 97.8329 27.4657 97.9001C26.9285 97.9672 26.1247 97.979 25.3407 98.1963C24.5645 98.4353 23.5751 98.5241 22.6547 98.7987C21.7226 99.0653 20.7252 99.2628 19.8444 99.7427C18.9537 100.213 18.0116 100.544 17.1545 100.987C16.2974 101.417 15.5192 102.036 14.7925 102.397C14.0736 102.774 13.4831 103.321 13.0466 103.643C12.6121 103.965 12.3613 104.24 12.3613 104.24C12.3613 104.24 12.6536 104.455 13.1671 104.67C13.6786 104.885 14.4449 105.253 15.3336 105.322C16.2204 105.403 17.3026 105.575 18.4205 105.468C19.5324 105.35 20.6995 105.087 21.8035 104.652C22.9036 104.206 23.9306 103.594 24.8173 102.912C25.7001 102.217 26.3676 101.352 26.9542 100.683C27.5487 100.015 27.8528 99.2252 28.076 98.7196C28.3031 98.2101 28.3702 97.8566 28.3702 97.8566Z" fill="url(#paint14_linear_21919_819)"/>
<path d="M32.4641 161.484C32.4641 161.484 32.0652 161.584 31.4865 161.853C30.9078 162.122 30.025 162.446 29.1956 163.016C28.374 163.599 27.2957 164.152 26.322 164.898C25.3405 165.643 24.2661 166.388 23.4208 167.367C22.5696 168.343 21.6295 169.23 20.8534 170.181C20.0733 171.127 19.4848 172.19 18.8765 172.992C18.2741 173.8 17.9246 174.672 17.6382 175.243C17.3518 175.812 17.2412 176.211 17.2412 176.211C17.2412 176.211 17.652 176.201 18.278 176.053C18.9041 175.905 19.8501 175.745 20.7764 175.279C21.7046 174.817 22.8718 174.358 23.9541 173.655C25.0304 172.95 26.1146 172.111 27.0982 171.167C28.0758 170.217 28.9487 169.16 29.6873 168.106C30.422 167.045 30.9217 165.896 31.4154 164.983C31.9092 164.069 32.1027 163.131 32.2726 162.513C32.4365 161.891 32.4641 161.484 32.4641 161.484Z" fill="url(#paint15_linear_21919_819)"/>
<defs>
<linearGradient id="paint0_linear_21919_819" x1="59.8935" y1="73.8099" x2="109.332" y2="-11.8193" gradientUnits="userSpaceOnUse">
<stop stop-color="#C3922E"/>
<stop offset="0.3273" stop-color="#EDDE9D"/>
<stop offset="1" stop-color="#C3922E"/>
</linearGradient>
<linearGradient id="paint1_linear_21919_819" x1="166.425" y1="56.3118" x2="200.322" y2="-2.39816" gradientUnits="userSpaceOnUse">
<stop stop-color="#C3922E"/>
<stop offset="0.3273" stop-color="#EDDE9D"/>
<stop offset="1" stop-color="#C3922E"/>
</linearGradient>
<linearGradient id="paint2_linear_21919_819" x1="99.3596" y1="65.9613" x2="113.096" y2="42.1697" gradientUnits="userSpaceOnUse">
<stop stop-color="#C3922E"/>
<stop offset="0.3273" stop-color="#EDDE9D"/>
<stop offset="1" stop-color="#C3922E"/>
</linearGradient>
<linearGradient id="paint3_linear_21919_819" x1="62.4017" y1="53.1764" x2="87.9601" y2="8.9077" gradientUnits="userSpaceOnUse">
<stop stop-color="#C3922E"/>
<stop offset="0.3273" stop-color="#EDDE9D"/>
<stop offset="1" stop-color="#C3922E"/>
</linearGradient>
<linearGradient id="paint4_linear_21919_819" x1="94.472" y1="80.347" x2="111.224" y2="51.3318" gradientUnits="userSpaceOnUse">
<stop stop-color="#C3922E"/>
<stop offset="0.3273" stop-color="#EDDE9D"/>
<stop offset="1" stop-color="#C3922E"/>
</linearGradient>
<linearGradient id="paint5_linear_21919_819" x1="79.4663" y1="76.7585" x2="95.4749" y2="49.0307" gradientUnits="userSpaceOnUse">
<stop stop-color="#C3922E"/>
<stop offset="0.3273" stop-color="#EDDE9D"/>
<stop offset="1" stop-color="#C3922E"/>
</linearGradient>
<linearGradient id="paint6_linear_21919_819" x1="97.7764" y1="28.3175" x2="106.295" y2="13.5624" gradientUnits="userSpaceOnUse">
<stop stop-color="#C3922E"/>
<stop offset="0.3273" stop-color="#EDDE9D"/>
<stop offset="1" stop-color="#C3922E"/>
</linearGradient>
<linearGradient id="paint7_linear_21919_819" x1="164.051" y1="33.9314" x2="174.323" y2="16.1401" gradientUnits="userSpaceOnUse">
<stop stop-color="#C3922E"/>
<stop offset="0.3273" stop-color="#EDDE9D"/>
<stop offset="1" stop-color="#C3922E"/>
</linearGradient>
<linearGradient id="paint8_linear_21919_819" x1="-6.76132" y1="142.277" x2="59.3461" y2="27.7754" gradientUnits="userSpaceOnUse">
<stop stop-color="#C3922E"/>
<stop offset="0.3273" stop-color="#EDDE9D"/>
<stop offset="1" stop-color="#C3922E"/>
</linearGradient>
<linearGradient id="paint9_linear_21919_819" x1="2.84937" y1="225.95" x2="51.3213" y2="141.994" gradientUnits="userSpaceOnUse">
<stop stop-color="#C3922E"/>
<stop offset="0.3273" stop-color="#EDDE9D"/>
<stop offset="1" stop-color="#C3922E"/>
</linearGradient>
<linearGradient id="paint10_linear_21919_819" x1="48.2261" y1="121.998" x2="64.9723" y2="92.9928" gradientUnits="userSpaceOnUse">
<stop stop-color="#C3922E"/>
<stop offset="0.3273" stop-color="#EDDE9D"/>
<stop offset="1" stop-color="#C3922E"/>
</linearGradient>
<linearGradient id="paint11_linear_21919_819" x1="19.033" y1="94.0965" x2="39.2048" y2="59.1582" gradientUnits="userSpaceOnUse">
<stop stop-color="#C3922E"/>
<stop offset="0.3273" stop-color="#EDDE9D"/>
<stop offset="1" stop-color="#C3922E"/>
</linearGradient>
<linearGradient id="paint12_linear_21919_819" x1="61.4684" y1="114.876" x2="74.3829" y2="92.5075" gradientUnits="userSpaceOnUse">
<stop stop-color="#C3922E"/>
<stop offset="0.3273" stop-color="#EDDE9D"/>
<stop offset="1" stop-color="#C3922E"/>
</linearGradient>
<linearGradient id="paint13_linear_21919_819" x1="57.4712" y1="102.09" x2="70.856" y2="78.9066" gradientUnits="userSpaceOnUse">
<stop stop-color="#C3922E"/>
<stop offset="0.3273" stop-color="#EDDE9D"/>
<stop offset="1" stop-color="#C3922E"/>
</linearGradient>
<linearGradient id="paint14_linear_21919_819" x1="17.0996" y1="106.989" x2="23.8715" y2="95.2597" gradientUnits="userSpaceOnUse">
<stop stop-color="#C3922E"/>
<stop offset="0.3273" stop-color="#EDDE9D"/>
<stop offset="1" stop-color="#C3922E"/>
</linearGradient>
<linearGradient id="paint15_linear_21919_819" x1="20.0624" y1="177.841" x2="30.2458" y2="160.203" gradientUnits="userSpaceOnUse">
<stop stop-color="#C3922E"/>
<stop offset="0.3273" stop-color="#EDDE9D"/>
<stop offset="1" stop-color="#C3922E"/>
</linearGradient>
</defs>
</svg>
