<svg width="260" height="260" viewBox="0 0 260 260" fill="none" xmlns="http://www.w3.org/2000/svg">
<path d="M118.704 250.281C119.624 250.281 120.554 250.22 121.486 250.098C128.014 249.235 133.802 245.737 138.117 242.785C144.972 238.098 151.318 232.564 157.458 227.214C160.294 224.743 163.223 222.19 166.16 219.759C173.992 213.273 184.556 205.371 196.85 201.822C209.277 198.234 221.911 199.907 230.648 206.301C240.493 213.506 244.409 227.307 239.375 237.063C235.613 244.351 227.176 248.409 220.161 246.312C216.475 245.204 213.331 242.004 211.961 237.964C210.764 234.438 211.153 230.921 213.031 228.312C213.351 227.87 213.25 227.254 212.808 226.936C212.37 226.612 211.749 226.716 211.431 227.159C209.174 230.291 208.684 234.46 210.09 238.598C211.664 243.235 215.308 246.914 219.596 248.2C227.486 250.574 236.946 246.077 241.131 237.968C246.591 227.382 242.41 212.461 231.813 204.706C222.59 197.951 209.312 196.166 196.303 199.922C183.662 203.574 172.88 211.628 164.9 218.236C161.945 220.683 159.006 223.244 156.163 225.723C150.066 231.036 143.762 236.532 137.004 241.149C132.868 243.979 127.34 247.329 121.23 248.135C115.119 248.95 109.202 246.79 106.159 242.658C104.441 240.322 103.775 237.126 104.383 234.115C104.893 231.581 106.244 229.545 108.187 228.383C110.733 226.863 113.978 227.597 116.061 229.003C118.216 230.455 119.304 232.592 118.972 234.717C118.887 235.254 119.259 235.76 119.796 235.845C120.327 235.93 120.837 235.562 120.924 235.021C121.378 232.12 119.974 229.258 117.167 227.366C113.99 225.223 110.063 224.957 107.172 226.691C104.745 228.14 103.068 230.641 102.446 233.724C101.731 237.274 102.525 241.053 104.569 243.829C107.557 247.894 112.913 250.281 118.704 250.281Z" fill="url(#paint0_linear_21919_855)"/>
<path d="M37.8773 246.882C38.5724 246.882 39.2557 246.844 39.9174 246.773C45.6131 246.155 50.7795 243.505 55.7742 240.937L56.2857 240.677C67.9063 234.716 79.916 229.167 91.9849 224.178C97.3805 221.948 102.683 219.906 108.209 219.387C114.314 218.802 119.934 220.376 123.628 223.676C127.814 227.419 129.209 233.754 126.801 238.099C126.537 238.575 126.71 239.178 127.186 239.442C127.664 239.703 128.263 239.535 128.529 239.057C131.411 233.851 129.87 226.607 124.943 222.205C120.839 218.541 114.675 216.803 108.025 217.421C102.227 217.965 96.7741 220.066 91.2324 222.355C79.1142 227.361 67.0531 232.935 55.3851 238.919L54.8736 239.181C50.039 241.666 45.0384 244.235 39.706 244.81C34.7193 245.353 28.4824 243.718 25.7708 238.86C23.9005 235.498 24.2225 231.017 26.5549 227.962C28.4646 225.46 31.6601 224.067 34.508 224.488C37.5079 224.936 40.0299 227.494 40.2531 230.314C40.3657 231.734 39.8107 233.27 38.7719 234.428C37.8062 235.502 36.5757 236.112 35.3039 236.15C34.7608 236.166 34.3303 236.62 34.3461 237.167C34.3619 237.71 34.7805 238.123 35.3631 238.125C37.1781 238.073 38.9121 237.228 40.2432 235.747C41.6573 234.171 42.3781 232.135 42.2221 230.16C41.9278 226.4 38.7344 223.123 34.8022 222.537C31.1999 221.995 27.3547 223.658 24.9848 226.763C22.1882 230.425 21.8032 235.792 24.0447 239.819C26.8254 244.806 32.6733 246.882 37.8773 246.882Z" fill="url(#paint1_linear_21919_855)"/>
<path d="M155.404 219.011C162.152 219.011 169.609 216.619 175.917 212.282C176.368 211.974 176.48 211.358 176.172 210.91C175.864 210.457 175.242 210.349 174.8 210.655C167.18 215.898 157.837 218.146 150.415 216.522C142.908 214.879 135.336 208.022 135.66 199.394C135.784 196.046 137.124 192.981 139.335 190.984C141.684 188.863 145.102 188.091 147.84 189.057C151.035 190.187 153.186 193.704 152.737 197.063C152.285 200.423 149.287 203.251 145.906 203.5C145.363 203.541 144.956 204.015 144.994 204.558C145.033 205.101 145.529 205.512 146.052 205.471C150.328 205.155 154.124 201.576 154.693 197.326C155.263 193.076 152.542 188.626 148.499 187.194C145.051 185.982 140.933 186.886 138.012 189.519C135.407 191.869 133.831 195.442 133.685 199.321C133.361 207.975 140.524 216.378 149.994 218.45C151.714 218.827 153.533 219.011 155.404 219.011Z" fill="url(#paint2_linear_21919_855)"/>
<path d="M182.131 254.822C183.054 254.822 183.976 254.719 184.886 254.51C190.229 253.271 194.218 247.904 193.594 242.788C193.082 238.592 189.547 234.926 185.372 234.261C181.175 233.611 176.696 235.987 174.907 239.816C174.676 240.31 174.889 240.898 175.383 241.129C175.873 241.361 176.463 241.149 176.696 240.653C178.128 237.592 181.709 235.679 185.06 236.214C188.398 236.745 191.224 239.676 191.633 243.029C192.138 247.191 188.844 251.565 184.438 252.586C178.559 253.947 172.043 249.936 170.197 243.825C168.158 237.081 168.713 229.481 171.721 222.98C174.869 216.17 182.264 208.636 190.12 204.234C190.596 203.965 190.766 203.365 190.499 202.889C190.231 202.411 189.63 202.243 189.154 202.509C180.834 207.172 173.287 214.882 169.926 222.15C166.717 229.086 166.126 237.193 168.305 244.396C170.161 250.524 176.116 254.82 182.131 254.822Z" fill="url(#paint3_linear_21919_855)"/>
<path d="M152.086 210.579C152.086 210.579 152.274 210.567 152.619 210.548C152.965 210.512 153.49 210.492 154.122 210.33C155.402 210.075 157.302 209.574 159.247 208.3C161.157 207.024 163.351 205.27 165.042 202.788C166.72 200.331 168.065 197.25 168.277 193.954C168.466 190.68 167.959 187.419 166.776 184.666C165.589 181.907 163.764 179.768 162.129 178.154C160.462 176.533 158.688 175.682 157.48 175.19C156.889 174.912 156.376 174.795 156.044 174.694C155.706 174.609 155.524 174.564 155.524 174.564C155.524 174.564 156.03 175.109 156.889 176.035C157.746 176.94 158.755 178.389 159.846 180.056C160.936 181.743 161.775 183.923 162.387 186.216C163.004 188.523 163.235 191.021 163.015 193.448C162.771 195.874 162.073 198.283 161.035 200.434C160.002 202.573 158.761 204.554 157.371 206.003C155.989 207.439 154.719 208.667 153.706 209.392C152.686 210.141 152.086 210.579 152.086 210.579Z" fill="url(#paint4_linear_21919_855)"/>
<path d="M161.926 209.467C161.926 209.467 162.536 209.556 163.588 209.463C164.637 209.38 166.203 209.215 167.9 208.474C169.571 207.727 171.569 206.734 173.345 205.148C175.108 203.576 176.815 201.571 177.818 199.18C178.803 196.8 179.467 194.304 179.558 191.928C179.649 189.548 179.131 187.376 178.64 185.612C178.132 183.833 177.255 182.521 176.649 181.662C176.048 180.793 175.586 180.382 175.586 180.382C175.586 180.382 175.604 181.006 175.677 182.012C175.762 183.019 175.695 184.453 175.701 186.052C175.701 187.668 175.353 189.511 174.938 191.371C174.522 193.243 173.87 195.141 173.037 196.934C172.189 198.722 171.147 200.434 169.973 201.955C168.808 203.465 167.609 204.909 166.367 205.94C165.135 206.963 164.072 207.927 163.243 208.504C162.417 209.086 161.926 209.467 161.926 209.467Z" fill="url(#paint5_linear_21919_855)"/>
<path d="M162.166 231.648C162.166 231.648 161.812 231.715 161.303 231.94C160.797 232.165 160.005 232.468 159.34 233.062C158.67 233.649 157.805 234.316 157.112 235.197C156.43 236.08 155.714 237.065 155.372 238.207C155.046 239.35 154.677 240.474 154.558 241.586C154.452 242.702 154.623 243.784 154.706 244.669C154.775 245.557 155.145 246.322 155.358 246.833C155.573 247.347 155.789 247.639 155.789 247.639C155.789 247.639 156.063 247.388 156.385 246.954C156.707 246.517 157.254 245.929 157.631 245.21C157.993 244.483 158.611 243.707 159.041 242.85C159.486 241.993 159.922 241.092 160.286 240.164C160.661 239.242 160.963 238.286 161.228 237.358C161.502 236.439 161.591 235.45 161.828 234.674C162.045 233.89 162.057 233.088 162.124 232.551C162.189 232.015 162.166 231.648 162.166 231.648Z" fill="url(#paint6_linear_21919_855)"/>
<path d="M98.5352 227.56C98.5352 227.56 98.1283 227.586 97.5062 227.756C96.8881 227.925 95.9499 228.119 95.0355 228.613C94.1251 229.106 92.9757 229.604 91.9152 230.339C90.8605 231.077 89.7229 231.871 88.8539 232.928C87.9909 233.988 87.0726 234.994 86.3656 236.07C85.6644 237.152 85.2062 238.32 84.7441 239.246C84.278 240.172 84.1161 241.118 83.9699 241.744C83.8218 242.372 83.8119 242.781 83.8119 242.781C83.8119 242.781 84.2109 242.67 84.7796 242.384C85.3484 242.098 86.2234 241.746 87.0311 241.146C87.8329 240.537 88.8935 239.949 89.8395 239.169C90.7914 238.391 91.7591 237.532 92.6518 236.601C93.5504 235.677 94.3779 234.68 95.1205 233.7C95.867 232.726 96.42 231.648 97.0026 230.827C97.5734 229.995 97.8973 229.112 98.1659 228.536C98.4345 227.959 98.5352 227.56 98.5352 227.56Z" fill="url(#paint7_linear_21919_855)"/>
<path d="M227.652 243.53C231.274 243.53 234.813 242.757 237.971 241.13C246.078 236.945 250.573 227.487 248.203 219.595C246.917 215.308 243.236 211.664 238.601 210.09C234.467 208.684 230.296 209.17 227.162 211.431C226.718 211.749 226.619 212.367 226.939 212.807C227.257 213.25 227.881 213.35 228.315 213.031C230.922 211.152 234.442 210.765 237.967 211.96C242.008 213.331 245.207 216.475 246.315 220.16C248.418 227.171 244.358 235.61 237.066 239.374C227.312 244.41 213.507 240.494 206.305 230.647C199.912 221.912 198.235 209.278 201.823 196.852C205.374 184.558 213.274 173.992 219.76 166.157C222.195 163.216 224.753 160.282 227.227 157.444C232.573 151.309 238.103 144.966 242.788 138.115C245.74 133.798 249.24 128.007 250.101 121.484C251 114.668 248.541 108.026 243.838 104.566C241.062 102.522 237.282 101.73 233.733 102.443C230.646 103.063 228.149 104.742 226.696 107.169C224.964 110.065 225.231 113.987 227.371 117.163C229.263 119.969 232.131 121.377 235.026 120.921C235.563 120.838 235.933 120.332 235.85 119.793C235.765 119.254 235.259 118.887 234.722 118.97C232.607 119.298 230.464 118.213 229.009 116.059C227.602 113.975 226.866 110.73 228.39 108.184C229.554 106.241 231.59 104.89 234.122 104.381C237.134 103.776 240.329 104.44 242.667 106.158C246.799 109.2 248.948 115.115 248.14 121.227C247.336 127.338 243.985 132.867 241.155 137.003C236.535 143.757 231.047 150.055 225.736 156.148C223.254 158.996 220.688 161.939 218.237 164.899C211.627 172.88 203.575 183.661 199.924 196.305C196.167 209.316 197.956 222.591 204.709 231.814C210.152 239.252 219.128 243.53 227.652 243.53Z" fill="url(#paint8_linear_21919_855)"/>
<path d="M233.249 129.975C235.293 129.975 237.293 129.507 239.057 128.53C239.533 128.265 239.707 127.665 239.442 127.187C239.176 126.709 238.581 126.537 238.099 126.802C233.754 129.207 227.419 127.813 223.676 123.626C220.376 119.933 218.814 114.314 219.387 108.208C219.906 102.68 221.948 97.3789 224.178 91.9834C229.167 79.9085 234.718 67.8969 240.675 56.2822L240.935 55.7727C243.503 50.778 246.153 45.6116 246.771 39.9158C247.382 34.2852 245.468 27.1952 239.819 24.0451C235.796 21.8016 230.427 22.1867 226.761 24.9852C223.66 27.3551 222.001 31.2083 222.537 34.8007C223.123 38.7348 226.4 41.9243 230.16 42.2206C232.127 42.3727 234.171 41.6557 235.747 40.2397C237.228 38.9086 238.074 37.1766 238.123 35.3596C238.139 34.8145 237.708 34.3603 237.163 34.3445C236.604 34.3484 236.164 34.7592 236.148 35.3043C236.112 36.5742 235.502 37.8066 234.426 38.7704C233.269 39.8092 231.73 40.3661 230.314 40.2516C227.494 40.0304 224.934 37.5064 224.488 34.5084C224.063 31.6605 225.458 28.4631 227.96 26.5533C231.015 24.2169 235.498 23.895 238.86 25.7693C243.718 28.4789 245.349 34.7197 244.81 39.7025C244.233 45.0349 241.664 50.0354 239.18 54.8701L238.917 55.3816C232.937 67.0437 227.363 79.1047 222.353 91.2289C220.064 96.7687 217.963 102.222 217.42 108.022C216.797 114.674 218.539 120.839 222.203 124.939C225.116 128.198 229.267 129.975 233.249 129.975Z" fill="url(#paint9_linear_21919_855)"/>
<path d="M211.468 176.344C211.78 176.344 212.09 176.196 212.282 175.915C217.823 167.86 220.187 157.928 218.449 149.992C216.376 140.522 207.954 133.308 199.318 133.685C195.439 133.829 191.869 135.407 189.516 138.01C186.884 140.927 185.971 145.045 187.192 148.497C188.622 152.54 193.063 155.263 197.323 154.691C201.571 154.12 205.15 150.326 205.468 146.048C205.51 145.505 205.101 145.031 204.556 144.99C204.011 144.944 203.537 145.357 203.497 145.902C203.246 149.283 200.418 152.283 197.061 152.733C193.715 153.188 190.188 151.035 189.054 147.838C188.087 145.102 188.859 141.684 190.982 139.333C192.978 137.123 196.044 135.784 199.391 135.658C208.043 135.332 214.877 142.906 216.52 150.415C218.143 157.833 215.896 167.174 210.652 174.798C210.344 175.248 210.457 175.862 210.907 176.17C211.079 176.289 211.274 176.344 211.468 176.344Z" fill="url(#paint10_linear_21919_855)"/>
<path d="M243.853 193.658C248.628 193.658 253.358 189.858 254.508 184.883C256.093 178.036 251.462 170.444 244.394 168.307C237.189 166.129 229.08 166.721 222.148 169.929C214.878 173.29 207.17 180.836 202.507 189.157C202.241 189.631 202.41 190.233 202.886 190.502C203.36 190.764 203.963 190.598 204.231 190.123C208.633 182.264 216.168 174.87 222.978 171.724C229.475 168.716 237.071 168.159 243.823 170.197C249.932 172.046 253.943 178.565 252.584 184.437C251.563 188.843 247.181 192.131 243.027 191.633C239.674 191.225 236.741 188.398 236.212 185.059C235.678 181.721 237.588 178.127 240.651 176.699C241.145 176.468 241.358 175.881 241.127 175.385C240.896 174.89 240.306 174.68 239.814 174.909C235.985 176.697 233.595 181.198 234.258 185.373C234.924 189.548 238.59 193.083 242.786 193.594C243.144 193.636 243.499 193.658 243.853 193.658Z" fill="url(#paint11_linear_21919_855)"/>
<path d="M210.606 152.093C210.606 152.093 210.17 152.694 209.423 153.717C208.697 154.732 207.468 156.004 206.03 157.388C204.579 158.78 202.594 160.023 200.453 161.058C198.289 162.102 195.863 162.687 193.456 163.042C191.023 163.376 188.511 163.031 186.21 162.412C183.913 161.798 181.729 160.957 180.04 159.865C178.371 158.773 176.922 157.761 176.015 156.902C175.087 156.041 174.542 155.536 174.542 155.536C174.542 155.536 174.587 155.717 174.672 156.055C174.773 156.389 174.89 156.902 175.168 157.495C175.662 158.705 176.513 160.481 178.136 162.15C179.752 163.787 181.895 165.614 184.656 166.803C187.403 167.986 190.675 168.608 193.956 168.304C197.234 167.982 200.331 166.749 202.801 165.065C205.286 163.372 207.044 161.176 208.321 159.264C209.595 157.315 210.099 155.413 210.356 154.131C210.518 153.499 210.537 152.972 210.573 152.627C210.595 152.281 210.606 152.093 210.606 152.093Z" fill="url(#paint12_linear_21919_855)"/>
<path d="M209.497 161.933C209.497 161.933 209.116 162.424 208.531 163.248C207.954 164.077 206.989 165.144 205.966 166.378C204.933 167.622 203.489 168.823 201.974 169.99C200.446 171.169 198.682 172.112 196.948 173.058C195.192 174 193.245 174.547 191.377 174.961C189.512 175.376 187.666 175.724 186.05 175.724C184.447 175.718 183.011 175.785 182.004 175.698C180.996 175.625 180.372 175.607 180.372 175.607C180.372 175.607 180.783 176.069 181.654 176.672C182.515 177.278 183.828 178.157 185.61 178.664C187.375 179.156 189.55 179.674 191.934 179.583C194.305 179.494 196.853 178.935 199.195 177.841C201.534 176.737 203.59 175.133 205.17 173.364C206.758 171.586 207.753 169.586 208.501 167.913C209.242 166.216 209.41 164.646 209.493 163.598C209.586 162.543 209.497 161.933 209.497 161.933Z" fill="url(#paint13_linear_21919_855)"/>
<path d="M231.632 162.143C231.632 162.143 232.001 162.167 232.536 162.1C233.073 162.033 233.877 162.021 234.661 161.804C235.437 161.565 236.427 161.476 237.347 161.201C238.279 160.935 239.277 160.737 240.158 160.257C241.048 159.787 241.99 159.456 242.847 159.013C243.705 158.583 244.483 157.964 245.209 157.603C245.928 157.226 246.519 156.679 246.955 156.357C247.39 156.035 247.641 155.76 247.641 155.76C247.641 155.76 247.348 155.545 246.835 155.33C246.323 155.115 245.557 154.747 244.668 154.678C243.782 154.597 242.699 154.425 241.581 154.532C240.47 154.65 239.302 154.913 238.198 155.348C237.098 155.794 236.071 156.406 235.185 157.088C234.302 157.783 233.634 158.648 233.048 159.317C232.453 159.985 232.149 160.775 231.926 161.28C231.699 161.79 231.632 162.143 231.632 162.143Z" fill="url(#paint14_linear_21919_855)"/>
<path d="M227.538 98.5163C227.538 98.5163 227.937 98.4155 228.515 98.1469C229.094 97.8784 229.977 97.5545 230.806 96.9837C231.628 96.4011 232.706 95.8481 233.68 95.1016C234.661 94.357 235.736 93.6124 236.581 92.6329C237.432 91.6572 238.372 90.7705 239.149 89.8186C239.929 88.8726 240.517 87.8101 241.125 87.0082C241.728 86.2005 242.077 85.3275 242.364 84.7568C242.65 84.188 242.761 83.7891 242.761 83.7891C242.761 83.7891 242.35 83.7989 241.724 83.9471C241.098 84.0952 240.152 84.2552 239.226 84.7212C238.297 85.1834 237.13 85.6415 236.048 86.3446C234.972 87.0497 233.887 87.8891 232.904 88.8331C231.926 89.783 231.053 90.8396 230.315 91.8943C229.58 92.9548 229.08 94.1042 228.587 95.0166C228.093 95.931 227.899 96.8692 227.729 97.4873C227.565 98.1094 227.538 98.5163 227.538 98.5163Z" fill="url(#paint15_linear_21919_855)"/>
<defs>
<linearGradient id="paint0_linear_21919_855" x1="200.108" y1="186.19" x2="150.67" y2="271.819" gradientUnits="userSpaceOnUse">
<stop stop-color="#C3922E"/>
<stop offset="0.3273" stop-color="#EDDE9D"/>
<stop offset="1" stop-color="#C3922E"/>
</linearGradient>
<linearGradient id="paint1_linear_21919_855" x1="93.5767" y1="203.688" x2="59.6804" y2="262.398" gradientUnits="userSpaceOnUse">
<stop stop-color="#C3922E"/>
<stop offset="0.3273" stop-color="#EDDE9D"/>
<stop offset="1" stop-color="#C3922E"/>
</linearGradient>
<linearGradient id="paint2_linear_21919_855" x1="160.642" y1="194.039" x2="146.906" y2="217.83" gradientUnits="userSpaceOnUse">
<stop stop-color="#C3922E"/>
<stop offset="0.3273" stop-color="#EDDE9D"/>
<stop offset="1" stop-color="#C3922E"/>
</linearGradient>
<linearGradient id="paint3_linear_21919_855" x1="197.6" y1="206.824" x2="172.042" y2="251.092" gradientUnits="userSpaceOnUse">
<stop stop-color="#C3922E"/>
<stop offset="0.3273" stop-color="#EDDE9D"/>
<stop offset="1" stop-color="#C3922E"/>
</linearGradient>
<linearGradient id="paint4_linear_21919_855" x1="165.53" y1="179.653" x2="148.778" y2="208.668" gradientUnits="userSpaceOnUse">
<stop stop-color="#C3922E"/>
<stop offset="0.3273" stop-color="#EDDE9D"/>
<stop offset="1" stop-color="#C3922E"/>
</linearGradient>
<linearGradient id="paint5_linear_21919_855" x1="180.536" y1="183.241" x2="164.527" y2="210.969" gradientUnits="userSpaceOnUse">
<stop stop-color="#C3922E"/>
<stop offset="0.3273" stop-color="#EDDE9D"/>
<stop offset="1" stop-color="#C3922E"/>
</linearGradient>
<linearGradient id="paint6_linear_21919_855" x1="162.226" y1="231.683" x2="153.707" y2="246.438" gradientUnits="userSpaceOnUse">
<stop stop-color="#C3922E"/>
<stop offset="0.3273" stop-color="#EDDE9D"/>
<stop offset="1" stop-color="#C3922E"/>
</linearGradient>
<linearGradient id="paint7_linear_21919_855" x1="95.9507" y1="226.069" x2="85.6789" y2="243.86" gradientUnits="userSpaceOnUse">
<stop stop-color="#C3922E"/>
<stop offset="0.3273" stop-color="#EDDE9D"/>
<stop offset="1" stop-color="#C3922E"/>
</linearGradient>
<linearGradient id="paint8_linear_21919_855" x1="266.763" y1="117.723" x2="200.656" y2="232.225" gradientUnits="userSpaceOnUse">
<stop stop-color="#C3922E"/>
<stop offset="0.3273" stop-color="#EDDE9D"/>
<stop offset="1" stop-color="#C3922E"/>
</linearGradient>
<linearGradient id="paint9_linear_21919_855" x1="257.153" y1="34.0504" x2="208.681" y2="118.006" gradientUnits="userSpaceOnUse">
<stop stop-color="#C3922E"/>
<stop offset="0.3273" stop-color="#EDDE9D"/>
<stop offset="1" stop-color="#C3922E"/>
</linearGradient>
<linearGradient id="paint10_linear_21919_855" x1="211.776" y1="138.002" x2="195.03" y2="167.007" gradientUnits="userSpaceOnUse">
<stop stop-color="#C3922E"/>
<stop offset="0.3273" stop-color="#EDDE9D"/>
<stop offset="1" stop-color="#C3922E"/>
</linearGradient>
<linearGradient id="paint11_linear_21919_855" x1="240.969" y1="165.904" x2="220.797" y2="200.842" gradientUnits="userSpaceOnUse">
<stop stop-color="#C3922E"/>
<stop offset="0.3273" stop-color="#EDDE9D"/>
<stop offset="1" stop-color="#C3922E"/>
</linearGradient>
<linearGradient id="paint12_linear_21919_855" x1="198.534" y1="145.124" x2="185.619" y2="167.493" gradientUnits="userSpaceOnUse">
<stop stop-color="#C3922E"/>
<stop offset="0.3273" stop-color="#EDDE9D"/>
<stop offset="1" stop-color="#C3922E"/>
</linearGradient>
<linearGradient id="paint13_linear_21919_855" x1="202.531" y1="157.91" x2="189.146" y2="181.093" gradientUnits="userSpaceOnUse">
<stop stop-color="#C3922E"/>
<stop offset="0.3273" stop-color="#EDDE9D"/>
<stop offset="1" stop-color="#C3922E"/>
</linearGradient>
<linearGradient id="paint14_linear_21919_855" x1="242.902" y1="153.011" x2="236.13" y2="164.74" gradientUnits="userSpaceOnUse">
<stop stop-color="#C3922E"/>
<stop offset="0.3273" stop-color="#EDDE9D"/>
<stop offset="1" stop-color="#C3922E"/>
</linearGradient>
<linearGradient id="paint15_linear_21919_855" x1="239.94" y1="82.1587" x2="229.756" y2="99.7968" gradientUnits="userSpaceOnUse">
<stop stop-color="#C3922E"/>
<stop offset="0.3273" stop-color="#EDDE9D"/>
<stop offset="1" stop-color="#C3922E"/>
</linearGradient>
</defs>
</svg>
