<svg width="276" height="57" viewBox="0 0 276 57" fill="none" xmlns="http://www.w3.org/2000/svg">
<path d="M132.176 33.2598C133.066 34.8455 133.449 36.7106 132.424 37.5494C131.342 38.3483 129.751 37.8237 128.39 37.3026C127.014 36.782 125.825 36.174 125.817 36.1695C125.202 36.7141 124.333 37.4775 123.236 38.4157C122.083 39.3895 120.679 40.5426 118.987 41.7511C117.3 42.9557 115.281 44.2002 112.852 45.1385C110.43 46.0807 107.561 46.5779 104.669 46.4704C101.777 46.379 98.8885 45.779 96.1395 45.0076L94.1251 44.3916L92.222 43.8545C90.9696 43.5167 89.6851 43.1545 88.4363 42.8728C85.939 42.2722 83.509 41.7756 81.2273 41.4853C72.1032 40.2648 67.1649 41.915 64.1127 42.8647C62.5886 43.3454 61.5713 43.7036 60.9091 43.8745C60.2388 44.0413 59.9395 44.0333 59.9395 44.0333C59.9395 44.0333 59.967 43.7591 60.2744 43.1266C60.5817 42.4946 61.1482 41.4808 62.4567 40.2123C63.7613 38.9718 65.8158 37.3621 69.1072 36.2489C72.367 35.1118 76.8185 34.5832 82.0691 35.2947C84.6977 35.6324 87.3789 36.2884 90.0401 37.1118C90.2035 37.1592 90.3635 37.2187 90.5309 37.2706C90.7941 36.4912 91.0894 35.7238 91.4324 35.0249C92.3458 33.0964 93.6263 31.3078 95.21 29.797C98.4257 26.7279 102.726 24.8993 107.118 24.1594C110.497 23.5554 114.854 23.5868 119.054 24.684C123.267 25.7177 127.289 27.8605 130.021 30.4844C130.022 30.4844 131.295 31.697 132.176 33.2598ZM125.49 36.0106C122.905 34.7301 119.945 33.2478 116.797 32.1501C113.554 30.9656 110.195 30.2062 107.438 29.9639C103.859 29.6176 100.141 30.0913 96.846 31.9398C95.2221 32.8541 93.7301 34.1141 92.4972 35.6804C92.0585 36.225 91.6595 36.8575 91.2804 37.5129C92.1939 37.8152 93.0999 38.133 94.0213 38.4752L96.0002 39.2426L97.8431 40.0175C100.273 40.9917 102.69 41.8066 105.068 42.2163C107.446 42.6374 109.768 42.6015 111.954 42.1443C116.35 41.2026 120.064 39.0152 122.677 37.6123C123.843 36.9449 124.788 36.4083 125.49 36.0106Z" fill="#C6B56F"/>
<path d="M132.176 33.2598C133.066 34.8455 133.449 36.7106 132.424 37.5494C131.342 38.3483 129.751 37.8237 128.39 37.3026C127.014 36.782 125.825 36.174 125.817 36.1695C125.202 36.7141 124.333 37.4775 123.236 38.4157C122.083 39.3895 120.679 40.5426 118.987 41.7511C117.3 42.9557 115.281 44.2002 112.852 45.1385C110.43 46.0807 107.561 46.5779 104.669 46.4704C101.777 46.379 98.8885 45.779 96.1395 45.0076L94.1251 44.3916L92.222 43.8545C90.9696 43.5167 89.6851 43.1545 88.4363 42.8728C85.939 42.2722 83.509 41.7756 81.2273 41.4853C72.1032 40.2648 67.1649 41.915 64.1127 42.8647C62.5886 43.3454 61.5713 43.7036 60.9091 43.8745C60.2388 44.0413 59.9395 44.0333 59.9395 44.0333C59.9395 44.0333 59.967 43.7591 60.2744 43.1266C60.5817 42.4946 61.1482 41.4808 62.4567 40.2123C63.7613 38.9718 65.8158 37.3621 69.1072 36.2489C72.367 35.1118 76.8185 34.5832 82.0691 35.2947C84.6977 35.6324 87.3789 36.2884 90.0401 37.1118C90.2035 37.1592 90.3635 37.2187 90.5309 37.2706C90.7941 36.4912 91.0894 35.7238 91.4324 35.0249C92.3458 33.0964 93.6263 31.3078 95.21 29.797C98.4257 26.7279 102.726 24.8993 107.118 24.1594C110.497 23.5554 114.854 23.5868 119.054 24.684C123.267 25.7177 127.289 27.8605 130.021 30.4844C130.022 30.4844 131.295 31.697 132.176 33.2598ZM125.49 36.0106C122.905 34.7301 119.945 33.2478 116.797 32.1501C113.554 30.9656 110.195 30.2062 107.438 29.9639C103.859 29.6176 100.141 30.0913 96.846 31.9398C95.2221 32.8541 93.7301 34.1141 92.4972 35.6804C92.0585 36.225 91.6595 36.8575 91.2804 37.5129C92.1939 37.8152 93.0999 38.133 94.0213 38.4752L96.0002 39.2426L97.8431 40.0175C100.273 40.9917 102.69 41.8066 105.068 42.2163C107.446 42.6374 109.768 42.6015 111.954 42.1443C116.35 41.2026 120.064 39.0152 122.677 37.6123C123.843 36.9449 124.788 36.4083 125.49 36.0106Z" fill="url(#paint0_linear_21919_891)"/>
<path d="M97.4923 49.0741C95.5949 50.0918 93.1089 50.9551 90.2247 51.4397C87.3352 51.9328 84.047 52.0203 80.5656 51.75C77.0497 51.5072 73.4691 50.8072 69.5799 49.9769C65.682 49.166 61.6374 48.4146 57.5421 47.7466C49.3601 46.4547 40.9283 45.6238 33.2529 45.8856C25.5899 46.1044 19.5028 47.261 14.8879 48.6489C13.7377 49.0146 12.6641 49.3524 11.6812 49.7021C10.7192 50.1083 9.82206 50.4855 8.98961 50.8392C7.31934 51.5152 6.02725 52.334 4.92399 52.962C4.37856 53.2883 3.88491 53.5861 3.45116 53.8728C3.0433 54.1866 2.67374 54.4768 2.33494 54.7356C1.68647 55.2602 1.21009 55.6894 0.866967 56.0236C0.175873 56.6911 0 56.9974 0 56.9974C0 56.9974 0.394922 57.0254 1.37357 56.878C1.86289 56.8025 2.49787 56.6836 3.30495 56.4963C3.7085 56.3969 4.15089 56.2854 4.6359 56.1625C5.14248 56.0591 5.69222 55.9437 6.29322 55.8163C11.0839 54.7711 19.1165 52.5843 33.4633 52.1307C40.6364 51.8804 48.7159 52.2816 56.7911 52.974C60.8303 53.3352 64.8749 53.7409 68.7943 54.1861C72.7138 54.6512 76.7659 55.0249 80.4879 54.8741C84.2272 54.7586 87.735 54.2535 90.7481 53.3552C93.7574 52.4609 96.2558 51.2084 98.076 49.8885C99.9049 48.5845 101.124 47.3085 101.884 46.3982C102.605 45.4679 103 44.9588 103 44.9588C103 44.9588 102.532 45.404 101.67 46.2233C100.785 47.0032 99.4069 48.0729 97.4923 49.0741Z" fill="#C6B56F"/>
<path d="M97.4923 49.0741C95.5949 50.0918 93.1089 50.9551 90.2247 51.4397C87.3352 51.9328 84.047 52.0203 80.5656 51.75C77.0497 51.5072 73.4691 50.8072 69.5799 49.9769C65.682 49.166 61.6374 48.4146 57.5421 47.7466C49.3601 46.4547 40.9283 45.6238 33.2529 45.8856C25.5899 46.1044 19.5028 47.261 14.8879 48.6489C13.7377 49.0146 12.6641 49.3524 11.6812 49.7021C10.7192 50.1083 9.82206 50.4855 8.98961 50.8392C7.31934 51.5152 6.02725 52.334 4.92399 52.962C4.37856 53.2883 3.88491 53.5861 3.45116 53.8728C3.0433 54.1866 2.67374 54.4768 2.33494 54.7356C1.68647 55.2602 1.21009 55.6894 0.866967 56.0236C0.175873 56.6911 0 56.9974 0 56.9974C0 56.9974 0.394922 57.0254 1.37357 56.878C1.86289 56.8025 2.49787 56.6836 3.30495 56.4963C3.7085 56.3969 4.15089 56.2854 4.6359 56.1625C5.14248 56.0591 5.69222 55.9437 6.29322 55.8163C11.0839 54.7711 19.1165 52.5843 33.4633 52.1307C40.6364 51.8804 48.7159 52.2816 56.7911 52.974C60.8303 53.3352 64.8749 53.7409 68.7943 54.1861C72.7138 54.6512 76.7659 55.0249 80.4879 54.8741C84.2272 54.7586 87.735 54.2535 90.7481 53.3552C93.7574 52.4609 96.2558 51.2084 98.076 49.8885C99.9049 48.5845 101.124 47.3085 101.884 46.3982C102.605 45.4679 103 44.9588 103 44.9588C103 44.9588 102.532 45.404 101.67 46.2233C100.785 47.0032 99.4069 48.0729 97.4923 49.0741Z" fill="url(#paint1_linear_21919_891)"/>
<path d="M152.751 23.1337C152.244 22.9784 151.717 22.7201 151.183 22.4098C151.649 22.4218 152.108 22.4658 152.551 22.5847C150.712 22.1 148.621 20.5293 146.599 18.371C142.203 13.2385 138.321 5.26322 138.409 -0.000160217C138.393 0.926113 138.245 1.93982 138.002 2.99749C137.759 1.93982 137.611 0.926113 137.595 -0.000160217C137.683 5.26322 133.797 13.2425 129.405 18.371C127.378 20.5293 125.292 22.1 123.453 22.5847C123.895 22.4653 124.35 22.4218 124.817 22.4098C124.282 22.7201 123.756 22.9784 123.249 23.1337C129.297 21.3167 137.739 29.7251 137.623 37.457C137.635 36.5667 137.774 35.6644 138.002 34.7656C138.225 35.6639 138.365 36.5667 138.377 37.457C138.261 29.7251 146.702 21.3172 152.751 23.1337Z" fill="#C6B56F"/>
<path d="M152.751 23.1337C152.244 22.9784 151.717 22.7201 151.183 22.4098C151.649 22.4218 152.108 22.4658 152.551 22.5847C150.712 22.1 148.621 20.5293 146.599 18.371C142.203 13.2385 138.321 5.26322 138.409 -0.000160217C138.393 0.926113 138.245 1.93982 138.002 2.99749C137.759 1.93982 137.611 0.926113 137.595 -0.000160217C137.683 5.26322 133.797 13.2425 129.405 18.371C127.378 20.5293 125.292 22.1 123.453 22.5847C123.895 22.4653 124.35 22.4218 124.817 22.4098C124.282 22.7201 123.756 22.9784 123.249 23.1337C129.297 21.3167 137.739 29.7251 137.623 37.457C137.635 36.5667 137.774 35.6644 138.002 34.7656C138.225 35.6639 138.365 36.5667 138.377 37.457C138.261 29.7251 146.702 21.3172 152.751 23.1337Z" fill="url(#paint2_linear_21919_891)"/>
<path d="M181.877 44.3911L179.862 45.0071C177.109 45.7785 174.225 46.3785 171.329 46.4699C168.44 46.5774 165.568 46.0803 163.147 45.138C160.717 44.1997 158.698 42.9557 157.011 41.7506C155.323 40.5421 153.919 39.389 152.766 38.4153C151.665 37.477 150.795 36.7136 150.185 36.169C150.169 36.173 148.984 36.781 147.608 37.3021C146.248 37.8232 144.655 38.3478 143.574 37.549C142.549 36.7101 142.932 34.8456 143.822 33.2593C144.703 31.697 145.976 30.484 145.976 30.484C148.709 27.8605 152.734 25.7172 156.943 24.6835C161.148 23.5864 165.5 23.5544 168.884 24.1589C173.272 24.8983 177.573 26.7274 180.788 29.7965C182.372 31.3073 183.657 33.0959 184.566 35.0244C184.909 35.7239 185.205 36.4913 185.471 37.2701C185.635 37.2182 185.794 37.1592 185.962 37.1113C188.619 36.2879 191.301 35.6325 193.933 35.2942C199.179 34.5828 203.635 35.1113 206.891 36.2485C210.182 37.3616 212.241 38.9718 213.542 40.2118C214.85 41.4799 215.417 42.4936 215.724 43.1261C216.031 43.7586 216.059 44.0329 216.059 44.0329C216.059 44.0329 215.76 44.0409 215.089 43.874C214.431 43.7031 213.414 43.3454 211.886 42.8643C208.834 41.914 203.899 40.2643 194.771 41.4849C192.493 41.7751 190.06 42.2717 187.562 42.8723C186.314 43.1545 185.029 43.5163 183.776 43.854L181.877 44.3911ZM180.002 39.2426L181.977 38.4752C182.902 38.133 183.808 37.8152 184.717 37.513C184.339 36.857 183.94 36.225 183.501 35.6804C182.272 34.1136 180.78 32.8541 179.156 31.9398C175.856 30.0913 172.138 29.6177 168.564 29.9639C165.807 30.2062 162.448 30.9656 159.201 32.1502C156.057 33.2478 153.093 34.7301 150.508 36.0106C151.211 36.4078 152.156 36.9449 153.325 37.6124C155.933 39.0158 159.652 41.2026 164.044 42.1444C166.231 42.6015 168.552 42.6375 170.93 42.2163C173.308 41.8066 175.725 40.9917 178.155 40.0175L180.002 39.2426Z" fill="#C6B56F"/>
<path d="M181.877 44.3911L179.862 45.0071C177.109 45.7785 174.225 46.3785 171.329 46.4699C168.44 46.5774 165.568 46.0803 163.147 45.138C160.717 44.1997 158.698 42.9557 157.011 41.7506C155.323 40.5421 153.919 39.389 152.766 38.4153C151.665 37.477 150.795 36.7136 150.185 36.169C150.169 36.173 148.984 36.781 147.608 37.3021C146.248 37.8232 144.655 38.3478 143.574 37.549C142.549 36.7101 142.932 34.8456 143.822 33.2593C144.703 31.697 145.976 30.484 145.976 30.484C148.709 27.8605 152.734 25.7172 156.943 24.6835C161.148 23.5864 165.5 23.5544 168.884 24.1589C173.272 24.8983 177.573 26.7274 180.788 29.7965C182.372 31.3073 183.657 33.0959 184.566 35.0244C184.909 35.7239 185.205 36.4913 185.471 37.2701C185.635 37.2182 185.794 37.1592 185.962 37.1113C188.619 36.2879 191.301 35.6325 193.933 35.2942C199.179 34.5828 203.635 35.1113 206.891 36.2485C210.182 37.3616 212.241 38.9718 213.542 40.2118C214.85 41.4799 215.417 42.4936 215.724 43.1261C216.031 43.7586 216.059 44.0329 216.059 44.0329C216.059 44.0329 215.76 44.0409 215.089 43.874C214.431 43.7031 213.414 43.3454 211.886 42.8643C208.834 41.914 203.899 40.2643 194.771 41.4849C192.493 41.7751 190.06 42.2717 187.562 42.8723C186.314 43.1545 185.029 43.5163 183.776 43.854L181.877 44.3911ZM180.002 39.2426L181.977 38.4752C182.902 38.133 183.808 37.8152 184.717 37.513C184.339 36.857 183.94 36.225 183.501 35.6804C182.272 34.1136 180.78 32.8541 179.156 31.9398C175.856 30.0913 172.138 29.6177 168.564 29.9639C165.807 30.2062 162.448 30.9656 159.201 32.1502C156.057 33.2478 153.093 34.7301 150.508 36.0106C151.211 36.4078 152.156 36.9449 153.325 37.6124C155.933 39.0158 159.652 41.2026 164.044 42.1444C166.231 42.6015 168.552 42.6375 170.93 42.2163C173.308 41.8066 175.725 40.9917 178.155 40.0175L180.002 39.2426Z" fill="url(#paint3_linear_21919_891)"/>
<path d="M273.829 54.7356C273.519 54.4773 273.171 54.1871 272.792 53.8728C272.39 53.5861 271.935 53.2883 271.428 52.962C270.403 52.334 269.198 51.5152 267.65 50.8392C266.872 50.4855 266.038 50.1083 265.149 49.7021C264.232 49.3524 263.234 49.0146 262.165 48.6489C257.876 47.261 252.223 46.1044 245.098 45.8856C237.965 45.6233 230.134 46.4547 222.526 47.7466C218.72 48.4141 214.966 49.1655 211.343 49.9769C207.725 50.8077 204.398 51.5077 201.13 51.75C197.895 52.0203 194.839 51.9328 192.155 51.4397C189.473 50.9551 187.164 50.0918 185.401 49.0741C183.621 48.0724 182.345 47.0032 181.519 46.2238C180.721 45.405 180.282 44.9593 180.282 44.9593C180.282 44.9593 180.65 45.4679 181.32 46.3987C182.029 47.3095 183.158 48.585 184.862 49.8889C186.55 51.2089 188.871 52.4614 191.672 53.3557C194.468 54.254 197.728 54.7591 201.203 54.8745C204.665 55.0254 208.431 54.6517 212.07 54.1866C215.712 53.7414 219.474 53.3358 223.224 52.9745C230.732 52.2826 238.24 51.8809 244.903 52.1312C258.235 52.5849 265.704 54.7711 270.151 55.8168C270.714 55.9437 271.221 56.0591 271.692 56.163C272.146 56.2859 272.557 56.3974 272.928 56.4968C273.674 56.6836 274.268 56.803 274.723 56.8785C275.637 57.0259 276 56.9979 276 56.9979C276 56.9979 275.836 56.6916 275.198 56.0242C274.875 55.6894 274.436 55.2607 273.829 54.7356Z" fill="#C6B56F"/>
<path d="M273.829 54.7356C273.519 54.4773 273.171 54.1871 272.792 53.8728C272.39 53.5861 271.935 53.2883 271.428 52.962C270.403 52.334 269.198 51.5152 267.65 50.8392C266.872 50.4855 266.038 50.1083 265.149 49.7021C264.232 49.3524 263.234 49.0146 262.165 48.6489C257.876 47.261 252.223 46.1044 245.098 45.8856C237.965 45.6233 230.134 46.4547 222.526 47.7466C218.72 48.4141 214.966 49.1655 211.343 49.9769C207.725 50.8077 204.398 51.5077 201.13 51.75C197.895 52.0203 194.839 51.9328 192.155 51.4397C189.473 50.9551 187.164 50.0918 185.401 49.0741C183.621 48.0724 182.345 47.0032 181.519 46.2238C180.721 45.405 180.282 44.9593 180.282 44.9593C180.282 44.9593 180.65 45.4679 181.32 46.3987C182.029 47.3095 183.158 48.585 184.862 49.8889C186.55 51.2089 188.871 52.4614 191.672 53.3557C194.468 54.254 197.728 54.7591 201.203 54.8745C204.665 55.0254 208.431 54.6517 212.07 54.1866C215.712 53.7414 219.474 53.3358 223.224 52.9745C230.732 52.2826 238.24 51.8809 244.903 52.1312C258.235 52.5849 265.704 54.7711 270.151 55.8168C270.714 55.9437 271.221 56.0591 271.692 56.163C272.146 56.2859 272.557 56.3974 272.928 56.4968C273.674 56.6836 274.268 56.803 274.723 56.8785C275.637 57.0259 276 56.9979 276 56.9979C276 56.9979 275.836 56.6916 275.198 56.0242C274.875 55.6894 274.436 55.2607 273.829 54.7356Z" fill="url(#paint4_linear_21919_891)"/>
<defs>
<linearGradient id="paint0_linear_21919_891" x1="59.0971" y1="47.0965" x2="61.2233" y2="23.5124" gradientUnits="userSpaceOnUse">
<stop stop-color="#C78E5C"/>
<stop offset="1" stop-color="#FFCF7F"/>
</linearGradient>
<linearGradient id="paint1_linear_21919_891" x1="-1.1869" y1="57.3237" x2="-0.760087" y2="44.7371" gradientUnits="userSpaceOnUse">
<stop stop-color="#C78E5C"/>
<stop offset="1" stop-color="#FFCF7F"/>
</linearGradient>
<linearGradient id="paint2_linear_21919_891" x1="122.909" y1="38.4655" x2="135.622" y2="3.94718" gradientUnits="userSpaceOnUse">
<stop stop-color="#C78E5C"/>
<stop offset="1" stop-color="#FFCF7F"/>
</linearGradient>
<linearGradient id="paint3_linear_21919_891" x1="142.119" y1="47.096" x2="144.245" y2="23.5117" gradientUnits="userSpaceOnUse">
<stop stop-color="#C78E5C"/>
<stop offset="1" stop-color="#FFCF7F"/>
</linearGradient>
<linearGradient id="paint4_linear_21919_891" x1="179.179" y1="57.3242" x2="179.638" y2="44.7398" gradientUnits="userSpaceOnUse">
<stop stop-color="#C78E5C"/>
<stop offset="1" stop-color="#FFCF7F"/>
</linearGradient>
</defs>
</svg>
